<?xml version="1.0" encoding="UTF-8" standalone="no"?>
<svg
   xmlns:dc="http://purl.org/dc/elements/1.1/"
   xmlns:cc="http://creativecommons.org/ns#"
   xmlns:rdf="http://www.w3.org/1999/02/22-rdf-syntax-ns#"
   xmlns:svg="http://www.w3.org/2000/svg"
   xmlns="http://www.w3.org/2000/svg"
   xmlns:sodipodi="http://sodipodi.sourceforge.net/DTD/sodipodi-0.dtd"
   xmlns:inkscape="http://www.inkscape.org/namespaces/inkscape"
   viewBox="0 0 32 40.00000125"
   version="1.1"
   x="0px"
   y="0px"
   id="svg2"
   inkscape:version="0.91 r13725"
   sodipodi:docname="double_flag_round.svg">
  <metadata
     id="metadata16">
    <rdf:RDF>
      <cc:Work
         rdf:about="">
        <dc:format>image/svg+xml</dc:format>
        <dc:type
           rdf:resource="http://purl.org/dc/dcmitype/StillImage" />
      </cc:Work>
    </rdf:RDF>
  </metadata>
  <defs
     id="defs14" />
  <sodipodi:namedview
     pagecolor="#ffffff"
     bordercolor="#666666"
     borderopacity="1"
     objecttolerance="10"
     gridtolerance="10"
     guidetolerance="10"
     inkscape:pageopacity="0"
     inkscape:pageshadow="2"
     inkscape:window-width="933"
     inkscape:window-height="629"
     id="namedview12"
     showgrid="false"
     inkscape:zoom="5.9"
     inkscape:cx="16"
     inkscape:cy="20"
     inkscape:window-x="65"
     inkscape:window-y="24"
     inkscape:window-maximized="0"
     inkscape:current-layer="svg2" />
  <g
     transform="translate(0,-1020.3622)"
     id="g4"
     style="fill:#ffffff">
    <path
       style="text-indent:0;text-transform:none;direction:ltr;block-progression:tb;baseline-shift:baseline;color:#000000;enable-background:accumulate;fill:#ffffff"
       d="M 16 0 C 7.1696442 0 0 7.1697003 0 16 C 0 24.8304 7.1696442 32 16 32 C 24.830346 32 32 24.8304 32 16 C 32 7.1697003 24.830346 0 16 0 z M 16 1.0625 C 24.263988 1.0625 30.96875 7.7360003 30.96875 16 C 30.96875 24.264 24.263988 30.9375 16 30.9375 C 7.7360023 30.9375 1.0625 24.264 1.0625 16 C 1.0625 7.7360003 7.7360023 1.0625 16 1.0625 z M 14.6875 9.5625 L 13.6875 9.84375 L 6.65625 11.6875 A 0.37110913 0.37110913 0 0 0 6.40625 12.15625 L 7.6875 17.0625 A 0.37110913 0.37110913 0 0 0 8.15625 17.3125 L 14.8125 15.5 L 15.03125 16.28125 L 13.5625 21.71875 A 0.37110913 0.37110913 0 0 0 13.84375 22.15625 L 14.8125 22.4375 A 0.37110913 0.37110913 0 0 0 15.28125 22.1875 L 15.9375 19.6875 L 16.59375 22.1875 A 0.37110913 0.37110913 0 0 0 17.0625 22.4375 L 18.0625 22.15625 A 0.37110913 0.37110913 0 0 0 18.34375 21.71875 L 16.875 16.25 L 17.0625 15.5 L 23.84375 17.34375 A 0.37110913 0.37110913 0 0 0 24.3125 17.0625 L 25.59375 12.1875 A 0.37110913 0.37110913 0 0 0 25.34375 11.71875 L 18.3125 9.84375 A 0.37110913 0.37110913 0 0 0 18.25 9.84375 A 0.37110913 0.37110913 0 0 0 18.21875 9.84375 L 17.21875 9.5625 A 0.37110913 0.37110913 0 0 0 17.125 9.5625 A 0.37110913 0.37110913 0 0 0 16.78125 9.8125 L 15.96875 12.875 L 15.125 9.8125 A 0.37110913 0.37110913 0 0 0 14.78125 9.5625 A 0.37110913 0.37110913 0 0 0 14.6875 9.5625 z M 14.5 10.375 L 15.59375 14.375 A 0.37110913 0.37110913 0 0 0 15.59375 14.40625 L 16.125 16.34375 A 0.37110913 0.37110913 0 0 0 16.125 16.375 L 17.53125 21.5625 L 17.21875 21.625 L 15.4375 14.96875 L 14.25 10.46875 L 14.5 10.375 z M 17.40625 10.375 L 17.65625 10.46875 L 16.46875 14.8125 L 16.34375 14.3125 L 17.40625 10.375 z M 13.5 10.5625 L 13.78125 11.65625 L 12.78125 11.875 L 13.09375 13 L 14.09375 12.71875 L 14.375 13.8125 L 13.34375 14.0625 L 13.625 15.0625 L 13.65625 15.125 L 12.59375 15.4375 L 12.28125 14.375 L 11.21875 14.65625 L 11.46875 15.71875 L 10.40625 16.03125 L 10.09375 14.96875 L 9.03125 15.21875 L 9.34375 16.28125 L 8.21875 16.59375 L 7.96875 15.53125 L 9.03125 15.21875 L 8.75 14.15625 L 7.65625 14.4375 L 7.375 13.34375 L 8.46875 13.09375 L 8.21875 12.0625 L 8.1875 11.96875 L 9.25 11.71875 L 9.53125 12.78125 L 10.625 12.46875 L 10.34375 11.5 L 10.3125 11.40625 L 11.4375 11.125 L 11.71875 12.1875 L 12.78125 11.875 L 12.53125 10.90625 L 12.5 10.8125 L 13.5 10.5625 z M 11.71875 12.1875 L 10.625 12.46875 L 10.90625 13.59375 L 12 13.28125 L 11.71875 12.1875 z M 12 13.28125 L 12.28125 14.375 L 13.34375 14.0625 L 13.09375 13 L 12 13.28125 z M 10.90625 13.59375 L 9.84375 13.84375 L 10.09375 14.96875 L 11.21875 14.65625 L 10.90625 13.59375 z M 9.84375 13.84375 L 9.53125 12.78125 L 8.46875 13.09375 L 8.75 14.15625 L 9.84375 13.84375 z M 18.4375 10.5625 L 19.5 10.84375 L 19.46875 10.9375 L 19.21875 11.90625 L 20.28125 12.21875 L 20.5625 11.15625 L 21.6875 11.40625 L 21.65625 11.53125 L 21.375 12.5 L 22.46875 12.8125 L 22.75 11.71875 L 23.8125 12 L 23.78125 12.09375 L 23.53125 13.125 L 24.53125 13.34375 L 24.625 13.375 L 24.34375 14.4375 L 24.25 14.4375 L 23.25 14.1875 L 23.53125 13.125 L 22.46875 12.8125 L 22.15625 13.875 L 23.21875 14.1875 L 22.96875 15.25 L 23.9375 15.53125 L 24.03125 15.5625 L 23.78125 16.625 L 22.65625 16.3125 L 22.6875 16.25 L 22.96875 15.25 L 21.90625 14.96875 L 21.625 15.96875 L 21.59375 16.0625 L 20.53125 15.75 L 20.53125 15.6875 L 20.78125 14.6875 L 21.90625 14.96875 L 22.15625 13.875 L 21.09375 13.59375 L 20.78125 14.65625 L 19.71875 14.40625 L 19.4375 15.375 L 19.40625 15.46875 L 18.34375 15.15625 L 18.375 15.09375 L 18.65625 14.09375 L 17.625 13.84375 L 17.53125 13.8125 L 17.84375 12.71875 L 17.90625 12.71875 L 18.90625 13.03125 L 19.21875 11.90625 L 18.21875 11.65625 L 18.125 11.65625 L 18.4375 10.5625 z M 18.90625 13.03125 L 18.65625 14.09375 L 19.71875 14.40625 L 20 13.28125 L 18.90625 13.03125 z M 20 13.28125 L 21.09375 13.59375 L 21.375 12.5 L 20.28125 12.21875 L 20 13.28125 z M 15.40625 17.71875 L 15.5625 18.25 L 14.65625 21.625 L 14.375 21.5625 L 15.40625 17.71875 z "
       transform="translate(-5e-7,1020.3622)"
       fill="#000000"
       fill-opacity="1"
       stroke="none"
       marker="none"
       visibility="visible"
       display="inline"
       overflow="visible"
       id="path6" />
  </g>
  <text
     x="0"
     y="47.000001"
     fill="#000000"
     font-size="5px"
     font-weight="bold"
     font-family="'Helvetica Neue', Helvetica, Arial-Unicode, Arial, Sans-serif"
     id="text8">Created by Chameleon Design</text>
  <text
     x="0"
     y="52.000001"
     fill="#000000"
     font-size="5px"
     font-weight="bold"
     font-family="'Helvetica Neue', Helvetica, Arial-Unicode, Arial, Sans-serif"
     id="text10">from the Noun Project</text>
</svg>
