<?xml version="1.0" encoding="UTF-8" standalone="no"?>
<!-- Generator: Adobe Illustrator 16.0.0, SVG Export Plug-In . SVG Version: 6.00 Build 0)  -->

<svg
   xmlns:dc="http://purl.org/dc/elements/1.1/"
   xmlns:cc="http://creativecommons.org/ns#"
   xmlns:rdf="http://www.w3.org/1999/02/22-rdf-syntax-ns#"
   xmlns:svg="http://www.w3.org/2000/svg"
   xmlns="http://www.w3.org/2000/svg"
   xmlns:sodipodi="http://sodipodi.sourceforge.net/DTD/sodipodi-0.dtd"
   xmlns:inkscape="http://www.inkscape.org/namespaces/inkscape"
   version="1.1"
   id="Layer_2"
   x="0px"
   y="0px"
   width="864px"
   height="864px"
   viewBox="0 0 864 864"
   enable-background="new 0 0 864 864"
   xml:space="preserve"
   inkscape:version="0.91 r13725"
   sodipodi:docname="double_flag02.svg"><metadata
     id="metadata9"><rdf:RDF><cc:Work
         rdf:about=""><dc:format>image/svg+xml</dc:format><dc:type
           rdf:resource="http://purl.org/dc/dcmitype/StillImage" /></cc:Work></rdf:RDF></metadata><defs
     id="defs7" /><sodipodi:namedview
     pagecolor="#ffffff"
     bordercolor="#666666"
     borderopacity="1"
     objecttolerance="10"
     gridtolerance="10"
     guidetolerance="10"
     inkscape:pageopacity="0"
     inkscape:pageshadow="2"
     inkscape:window-width="1215"
     inkscape:window-height="776"
     id="namedview5"
     showgrid="false"
     inkscape:zoom="0.27314815"
     inkscape:cx="432"
     inkscape:cy="432"
     inkscape:window-x="65"
     inkscape:window-y="24"
     inkscape:window-maximized="1"
     inkscape:current-layer="Layer_2" /><path
     d="M815.775,360.176c-26.802-19.008-55.823-31.148-89.415-31.443c-17.533-0.156-34.885-2.812-51.036-11.006  c-8.482-4.303-10.284-9.629-5.788-17.537c2.95-5.189,6.568-10.045,9.088-15.424c6.058-12.936,15.758-25.789,5.051-40.637  c-17.435-24.176-40.106-38.951-71.008-39.273c-15.271-0.16-30.729-0.332-45.728-2.785c-11.911-1.949-25.992-1.799-31.677-17.422  c-1.181-3.246-8.723-5.438-13.422-5.604c-2.314-0.082-5.857,5.203-7.104,8.684c-23.274,64.992-46.294,130.076-69.348,195.148  c-5.744,16.211-11.423,32.447-17.854,50.727c-3.454-5.564-5.915-9.027-7.87-12.756c-38.939-74.23-77.846-148.479-116.655-222.777  c-2.427-4.645-4.802-9.848-10.79-7.312c-3.833,1.623-7.968,5.406-9.432,9.199c-3.979,10.311-10.005,17.865-20.908,20.752  c-17.507,4.637-35.279,8.408-52.521,13.863c-16.864,5.338-34.478,10.178-49.496,19.064c-26.259,15.539-28.498,40.105-9.005,63.895  c7.229,8.822,13.357,18.547,20.254,28.232c-4.051,3.482-6.419,6.686-9.579,8.037c-13.67,5.844-27.338,11.85-41.434,16.508  C83.968,382.248,48.184,394.66,19,420.5c-6.4,5.927-5.719,11.5,0,16c16.83,16.496,34.621,32.143,50.22,49.73  c15.551,17.533,29.144,36.838,43.141,55.703c10.231,13.789,19.981,27.957,29.444,42.287c4.854,7.35,10.027,8.678,14.919,1.334  c26.52-39.812,68.444-50.008,111.225-59.209c17.305-3.721,34.895-7.498,51.207-14.092c18.679-7.549,22.415-22.662,10.486-40.076  c-5.77-8.424-13.249-15.738-18.525-24.424c-6.349-10.451-5.514-10.512,6.375-13.467c23.027-5.723,46.02-11.654,68.782-18.332  c6.169-1.809,8.707-1.104,11.397,4.658c6.006,12.859,16.983,25.031,18.029,38.113c1.041,13.02-7.296,26.912-12.02,40.244  c-21.716,61.293-43.745,122.475-65.254,183.838c-2.646,7.549-8.855,15.538-5.427,23.691c5.394,5.963,15.628,4.728,17.745-0.565  c1.818-7.326,5.276-14.306,7.809-21.376c17.593-49.115,35.4-98.152,53.273-147.166c6.189-16.973,12.758-33.807,19.856-52.564  c5.144,9.705,9.342,17.498,13.426,25.35c30.568,58.785,61.058,117.611,91.811,176.299c1.748,3.334,5.253,7.145,8.559,7.854  c2.992,0.643,8.612-1.826,9.832-4.436c1.434-3.07,0.407-8.301-1.326-11.688c-34.403-67.223-68.872-134.416-103.857-201.338  c-6.052-11.576-9.318-22.014-3.538-34.77c5.187-11.443,8.525-23.725,11.932-33.494c30.917,4.32,59.414,8.303,88.565,12.375  c-2.426,5.123-4.131,9.836-6.75,13.969c-3.186,5.031-6.713,9.988-10.84,14.254c-13.277,13.723-7.468,35.795,5.613,44.814  c18.323,12.639,38.592,16.432,59.671,14.123c29.518-3.232,57.306,2.699,84.056,13.559c12.306,4.996,22.866,14.189,34.463,21.066  c11.361,6.736,12.938,5.82,15.824-7.26c0.42-1.904,1.051-3.816,1.919-5.559c8.822-17.705,16.633-36.033,26.851-52.898  c13.896-22.936,29.146-45.107,44.793-66.904c9.28-12.928,20.441-24.506,31.133-37.137  C827.102,368.23,821.444,364.195,815.775,360.176z M297.805,272.959c5.499,11.865,11.403,24.604,18.181,39.227  c-15.297,5.193-30.044,10.201-45.593,15.48c-6.456-13.963-12.502-27.039-18.874-40.822  C266.813,282.256,281.602,277.82,297.805,272.959z M304.434,244.398c22.77,43.455,45.539,86.912,68.309,130.367  C339.804,336.65,313.897,294.842,304.434,244.398z M248.379,397.338c-9.214-14.736-17.869-28.582-28.04-44.85  c15.565-6.943,30.941-13.803,45.979-20.512c9.669,17.004,18.439,32.43,27.516,48.393  C279.179,385.84,263.925,391.535,248.379,397.338z M270.822,440.879c-5.444,8.186-9.921,14.916-14.695,22.096  c-7.829-13.666-16.221-27.762-23.842-42.264c-1.054-2.004,0.867-6.871,2.915-8.883c2.651-2.605,6.812-3.676,11.979-6.225  C255.651,418.244,263.686,430.232,270.822,440.879z M234.304,239.184c3.655,13.27,6.636,24.418,9.816,35.508  c1.706,5.949,0.206,8.982-6.287,10.678c-14.404,3.76-28.572,8.422-43.866,13.025c-5.276-14.84-10.505-29.545-16.692-46.945  C197.396,247.121,215.934,243.135,234.304,239.184z M174.744,319.715c5-5.096,10.979-9.234,16.332-13.574  c5.634,11.156,10.605,21.521,16.038,31.639c8.083,15.053,7.71,16.771-9.863,28.439c-8.557-12.23-17.454-24.367-25.48-37.057  C170.586,327.289,172.602,321.9,174.744,319.715z M205.161,387.029c7.229,12.275,14.651,24.881,22.429,38.088  c-13.08,6.891-25.402,13.383-38.157,20.102c-7.344-11.488-13.898-21.742-20.983-32.826  C180.461,404.094,192.246,395.951,205.161,387.029z M97.902,384.889c9.759-3.115,19.896-5.148,29.456-8.748  c6.711-2.527,10.204,0.822,13.349,5.107c6.23,8.49,11.997,17.322,19.129,27.725c-18.7,6.045-36.222,11.709-54.687,17.678  c-9.477-10.543-19.197-21.355-29.968-33.338C83.424,390.229,90.56,387.232,97.902,384.889z M85.414,491.898  c-8.921-9.486-18.459-19.631-28.522-30.332c11.506-13.791,26.215-21.943,43.075-26.393c2-0.529,5.629,1.416,7.128,3.307  c7.419,9.352,14.376,19.07,21.763,29.02C114.352,475.646,100.138,483.629,85.414,491.898z M146.817,578.336  c-7.773-13.605-15.853-27.746-25.274-44.238c11.534-8.305,24.267-17.473,38.384-27.639c9.13,13.346,17.583,25.699,25.539,37.328  C171.877,555.936,159.633,566.881,146.817,578.336z M161.254,499.695c-6.73-9.359-13.807-19.197-21.337-29.67  c14.576-6.156,27.997-12.086,41.682-17.328c2.088-0.801,6.47,0.73,7.948,2.623c6.471,8.277,12.263,17.086,18.889,26.541  C192.234,487.984,177.134,493.693,161.254,499.695z M242.46,522.158c-7.487-11.4-15.033-22.891-23.558-35.869  c11.087-3.334,21.525-7.145,32.279-9.523c11.48-2.541,18.754,5.434,24.98,13.193c6.129,7.637,10.994,16.285,17.187,25.658  C275.539,517.906,259.143,520.014,242.46,522.158z M316.766,471.318c-9.689,2.912-18.427,5.938-27.379,8.057  c-4.403,1.041-9.898,1.9-13.653,0.158c-4.88-2.266-12.511-8.029-11.931-10.834c1.625-7.85,5.522-16.268,11.092-21.939  c4.624-4.711,12.893-5.844,19.795-8.662C302.263,449.494,309.479,460.354,316.766,471.318z M330.216,424.912  c-9.224-13.182-17.867-25.533-26.891-38.43c17.139-6.723,32.662-12.811,49.091-19.254c11.77,12.441,23.616,24.963,37.458,39.594  C368.929,413.174,349.817,418.969,330.216,424.912z M708.051,340.545c1.575-2.365,5.95-4.486,8.739-4.162  c16.626,1.928,33.165,4.607,52.748,7.477c-10.188,14.205-18.312,25.652-26.642,36.947c-0.778,1.055-2.938,1.777-4.317,1.598  c-16.649-2.164-33.272-4.529-51.792-7.105C694.491,362.533,700.9,351.293,708.051,340.545z M677.854,380.617  c-6.479,10.598-12.535,21.127-19.37,31.121c-1.26,1.842-5.994,2.689-8.583,1.992c-9.504-2.566-18.779-5.977-29.309-9.455  c6.586-14.91,12.561-28.434,18.772-42.496C652.343,368.131,664.612,374.137,677.854,380.617z M659.952,296.994  c0.865,0.873,0.396,3.803-0.319,5.393c-5.929,13.199-12.061,26.307-18.109,39.395c-20.554-7.869-22.035-12.332-14.01-31.939  c4.083-9.977,6.171-20.768,9.345-31.832C648.907,279.191,652.962,289.932,659.952,296.994z M588.154,212.709  c15.365,1.281,31.035,2.207,46.595,4.055c7.121,0.846,9.778,5.285,7.226,12.934c-3.838,11.504-6.747,23.314-9.812,34.148  c-15.977-3.615-31.893-7.217-48.102-10.885C585.323,240.553,586.611,227.883,588.154,212.709z M581.017,420.855  c5.828-12.254,12.306-25.871,19.088-40.131c13.754,8.244,16.209,15.316,10.411,28.271c-4.446,9.932-8.973,19.83-13.479,29.736  c-0.13,0.283-0.446,0.482-0.212,0.238C591.902,433.33,586.953,427.658,581.017,420.855z M579.576,317.518  c9.93,1.588,19.604,5.031,29.19,8.295c1.849,0.629,4.441,4.283,3.989,5.646c-4.034,12.156-8.491,24.186-13.339,36.041  c-0.714,1.748-4.342,3.67-6.25,3.344c-13.552-2.32-27.006-5.207-41.604-8.135c5.852-13.967,10.567-26.736,16.669-38.807  C569.923,320.559,576.103,316.961,579.576,317.518z M523.747,223.615c-0.068,27.785-4.188,53.576-14.749,77.66  c-9.215,21.014-20.527,41.109-30.912,61.609c-1.13-0.516-2.26-1.033-3.39-1.551C490.853,315.973,507.009,270.611,523.747,223.615z   M527.278,403.5c-0.712,1.537-3.526,3.18-5.205,3.023c-18.651-1.734-37.271-3.816-58.427-6.072  c8.577-11.799,15.472-19.641,20.432-28.559c5.094-9.16,11.852-10.941,21.216-9.285c12.022,2.127,24.147,3.668,37.471,5.645  C537.354,380.711,532.517,392.199,527.278,403.5z M521.49,303.689c4.272-16.309,8.485-32.395,12.559-47.941  c14.242,2.318,28.811,4.689,44.192,7.191c-4.51,16.381-8.922,32.412-13.48,48.975C550.17,309.141,536.277,306.5,521.49,303.689z   M542.218,456.463c4.334-9.936,7.407-18.656,11.81-26.648c5.395-9.791,10.693-10.24,22.883-3.5  c10.764,5.953,15.632,15.326,10.973,23.205c-1.869,3.16-6.396,6.377-9.927,6.633C566.426,456.984,554.797,456.463,542.218,456.463z   M617.156,493.623c-0.684,1.365-2.88,2.688-4.45,2.781c-14.206,0.846-28.428,1.451-42.649,2.01  c-1.523,0.059-3.076-0.627-5.888-1.248c8.944-16.16,16.016-32.406,30.135-43.869c1.575-1.279,5.005-1.111,7.296-0.525  c9.923,2.535,19.741,5.477,31.013,8.672C627.211,472.793,622.336,483.285,617.156,493.623z M658.054,425.982  c0.94-1.619,3.625-3.514,5.202-3.275c13.967,2.104,27.879,4.59,41.769,7.172c1.77,0.328,3.315,1.861,5.565,3.191  c-6.418,11.213-12.599,22.01-18.636,32.557c-16.709-3.242-33.141-6.43-50.426-9.783C647.152,445.584,652.423,435.68,658.054,425.982  z M732.661,504.6c-4.376,10.568-9.299,20.912-14.265,31.824c-13.407-8.707-26.855-17.438-41.154-26.723  c5.277-11.047,10.777-22.557,17.553-36.74c12.959,8.939,24.688,16.836,36.111,25.15C732.369,499.178,733.364,502.9,732.661,504.6z   M762.249,446.74c-13.666-6.945-26.997-13.719-41.239-20.957c5.646-9.926,10.959-20.967,18.037-30.727  c2.282-3.148,9.913-5.117,13.883-3.842c12.636,4.057,24.698,9.895,38.673,15.752C780.482,422.035,771.457,434.264,762.249,446.74z"
     id="path3"
     style="fill:#ffffff" /></svg>