<?xml version="1.0" encoding="UTF-8" standalone="no"?>
<svg
   xmlns:dc="http://purl.org/dc/elements/1.1/"
   xmlns:cc="http://creativecommons.org/ns#"
   xmlns:rdf="http://www.w3.org/1999/02/22-rdf-syntax-ns#"
   xmlns:svg="http://www.w3.org/2000/svg"
   xmlns="http://www.w3.org/2000/svg"
   xmlns:sodipodi="http://sodipodi.sourceforge.net/DTD/sodipodi-0.dtd"
   xmlns:inkscape="http://www.inkscape.org/namespaces/inkscape"
   viewBox="0 0 32.499999 32.5"
   version="1.1"
   x="0px"
   y="0px"
   id="svg2"
   inkscape:version="0.91 r13725"
   sodipodi:docname="double_flag_round.svg"
   width="32.5"
   height="32.5">
  <metadata
     id="metadata16">
    <rdf:RDF>
      <cc:Work
         rdf:about="">
        <dc:format>image/svg+xml</dc:format>
        <dc:type
           rdf:resource="http://purl.org/dc/dcmitype/StillImage" />
        <dc:title />
      </cc:Work>
    </rdf:RDF>
  </metadata>
  <defs
     id="defs14" />
  <sodipodi:namedview
     pagecolor="#ffffff"
     bordercolor="#666666"
     borderopacity="1"
     objecttolerance="10"
     gridtolerance="10"
     guidetolerance="10"
     inkscape:pageopacity="0"
     inkscape:pageshadow="2"
     inkscape:window-width="1205"
     inkscape:window-height="719"
     id="namedview12"
     showgrid="false"
     inkscape:zoom="5.9"
     inkscape:cx="16"
     inkscape:cy="20"
     inkscape:window-x="75"
     inkscape:window-y="34"
     inkscape:window-maximized="0"
     inkscape:current-layer="svg2"
     units="in" />
  <g
     transform="translate(0,-1027.8622)"
     id="g4"
     style="fill:#ffffff">
    <path
       style="color:#000000;text-indent:0;text-transform:none;direction:ltr;block-progression:tb;baseline-shift:baseline;display:inline;overflow:visible;visibility:visible;fill:#000000;fill-opacity:1;stroke:none;marker:none;enable-background:accumulate"
       d="m 16.338983,1028.1249 c -8.8303562,0 -16.00000042,7.1697 -16.00000042,16 0,8.8304 7.16964422,16 16.00000042,16 8.830345,0 16,-7.1696 16,-16 0,-8.8303 -7.169655,-16 -16,-16 z m 0,1.0625 c 8.263988,0 14.96875,6.6735 14.96875,14.9375 0,8.264 -6.704762,14.9375 -14.96875,14.9375 -8.2639981,0 -14.9375004,-6.6735 -14.9375004,-14.9375 0,-8.264 6.6735023,-14.9375 14.9375004,-14.9375 z m -1.3125,8.5 -1,0.2813 -7.0312504,1.8437 a 0.37110913,0.37110913 0 0 0 -0.25,0.4688 l 1.28125,4.9062 a 0.37110913,0.37110913 0 0 0 0.46875,0.25 l 6.6562504,-1.8125 0.21875,0.7813 -1.46875,5.4375 a 0.37110913,0.37110913 0 0 0 0.28125,0.4375 l 0.96875,0.2812 a 0.37110913,0.37110913 0 0 0 0.46875,-0.25 l 0.65625,-2.5 0.65625,2.5 a 0.37110913,0.37110913 0 0 0 0.46875,0.25 l 1,-0.2812 a 0.37110913,0.37110913 0 0 0 0.28125,-0.4375 l -1.46875,-5.4688 0.1875,-0.75 6.78125,1.8438 a 0.37110913,0.37110913 0 0 0 0.46875,-0.2813 l 1.28125,-4.875 a 0.37110913,0.37110913 0 0 0 -0.25,-0.4687 l -7.03125,-1.875 a 0.37110913,0.37110913 0 0 0 -0.0625,0 0.37110913,0.37110913 0 0 0 -0.03125,0 l -1,-0.2813 a 0.37110913,0.37110913 0 0 0 -0.09375,0 0.37110913,0.37110913 0 0 0 -0.34375,0.25 l -0.8125,3.0625 -0.84375,-3.0625 a 0.37110913,0.37110913 0 0 0 -0.34375,-0.25 0.37110913,0.37110913 0 0 0 -0.09375,0 z m -0.1875,0.8125 1.09375,4 a 0.37110913,0.37110913 0 0 0 0,0.031 l 0.53125,1.9375 a 0.37110913,0.37110913 0 0 0 0,0.031 l 1.40625,5.1875 -0.3125,0.062 -1.78125,-6.6562 -1.1875,-4.5 0.25,-0.094 z m 2.90625,0 0.25,0.094 -1.1875,4.3437 -0.125,-0.5 1.0625,-3.9375 z m -3.90625,0.1875 0.28125,1.0938 -1,0.2187 0.3125,1.125 1,-0.2812 0.28125,1.0937 -1.03125,0.25 0.28125,1 0.03125,0.062 -1.0625,0.3125 -0.3125,-1.0625 -1.0625,0.2813 0.25,1.0625 -1.0625,0.3125 -0.3125,-1.0625 -1.0625004,0.25 0.3125,1.0625 -1.125,0.3125 -0.25,-1.0625 1.0625,-0.3125 -0.28125,-1.0625 -1.09375,0.2812 -0.28125,-1.0937 1.09375,-0.25 -0.25,-1.0313 -0.03125,-0.094 1.0625,-0.25 0.28125,1.0625 1.0937504,-0.3125 -0.28125,-0.9688 -0.03125,-0.094 1.125,-0.2813 0.28125,1.0625 1.0625,-0.3125 -0.25,-0.9687 -0.03125,-0.094 1,-0.25 z m -1.78125,1.625 -1.09375,0.2813 0.28125,1.125 1.09375,-0.3125 -0.28125,-1.0938 z m 0.28125,1.0938 0.28125,1.0937 1.0625,-0.3125 -0.25,-1.0625 -1.09375,0.2813 z m -1.09375,0.3125 -1.0625,0.25 0.25,1.125 1.125,-0.3125 -0.3125,-1.0625 z m -1.0625,0.25 -0.3125004,-1.0625 -1.0625,0.3125 0.28125,1.0625 1.0937504,-0.3125 z m 8.59375,-3.2813 1.0625,0.2813 -0.03125,0.094 -0.25,0.9688 1.0625,0.3125 0.28125,-1.0625 1.125,0.25 -0.03125,0.125 -0.28125,0.9687 1.09375,0.3125 0.28125,-1.0937 1.0625,0.2812 -0.03125,0.094 -0.25,1.0312 1,0.2188 0.09375,0.031 -0.28125,1.0625 -0.09375,0 -1,-0.25 0.28125,-1.0625 -1.0625,-0.3125 -0.3125,1.0625 1.0625,0.3125 -0.25,1.0625 0.96875,0.2813 0.09375,0.031 -0.25,1.0625 -1.125,-0.3125 0.03125,-0.062 0.28125,-1 -1.0625,-0.2812 -0.28125,1 -0.03125,0.094 -1.0625,-0.3125 0,-0.062 0.25,-1 1.125,0.2813 0.25,-1.0938 -1.0625,-0.2812 -0.3125,1.0625 -1.0625,-0.25 -0.28125,0.9687 -0.03125,0.094 -1.0625,-0.3125 0.03125,-0.062 0.28125,-1 -1.03125,-0.25 -0.09375,-0.031 0.3125,-1.0937 0.0625,0 1,0.3125 0.3125,-1.125 -1,-0.25 -0.09375,0 0.3125,-1.0938 z m 0.46875,2.4688 -0.25,1.0625 1.0625,0.3125 0.28125,-1.125 -1.09375,-0.25 z m 1.09375,0.25 1.09375,0.3125 0.28125,-1.0938 -1.09375,-0.2812 -0.28125,1.0625 z m -4.59375,4.4375 0.15625,0.5312 -0.90625,3.375 -0.28125,-0.062 1.03125,-3.8437 z"
       visibility="visible"
       display="inline"
       overflow="visible"
       id="path6"
       inkscape:connector-curvature="0" />
  </g>
</svg>
